# Blender v2.74 (sub 0) OBJ File: ''
# www.blender.org
mtllib cube.mtl
o Box
v 0.679715 0.500000 -1.136705
v -0.194905 0.500000 -1.621515
v 0.679715 -0.500000 -1.136705
v -0.194905 -0.500000 -1.621515
v -0.679715 0.500000 -0.746895
v 0.194905 0.500000 -0.262085
v -0.679715 -0.500000 -0.746895
v 0.194905 -0.500000 -0.262085
vt 0.000000 1.000000
vt 0.000000 0.000000
vt 1.000000 0.000000
vt 1.000000 1.000000
vn 0.484800 0.000000 -0.874600
vn -0.484800 0.000000 0.874600
vn 0.000000 1.000000 0.000000
vn 0.000000 -1.000000 0.000000
vn 0.874600 0.000000 0.484800
vn -0.874600 0.000000 -0.484800
usemtl ffffff
s 1
f 1/1/1 3/2/1 4/3/1 2/4/1
f 5/1/2 7/2/2 8/3/2 6/4/2
f 5/1/3 6/2/3 1/3/3 2/4/3
f 8/1/4 7/2/4 4/3/4 3/4/4
f 6/1/5 8/2/5 3/3/5 1/4/5
f 2/1/6 4/2/6 7/3/6 5/4/6
